0
SECTION
2
HEADER
9
$INSUNITS
70
4
9
$ACADVER
1
AC1014
9
$HANDSEED
5
FFFF
0
ENDSEC
0
SECTION
2
TABLES
0
TABLE
2
VPORT
5
8
100
AcDbSymbolTable
0
ENDTAB
0
TABLE
2
LTYPE
5
5
100
AcDbSymbolTable
0
LTYPE
5
14
100
AcDbSymbolTableRecord
100
AcDbLinetypeTableRecord
2
BYBLOCK
70
0
0
LTYPE
5
15
100
AcDbSymbolTableRecord
100
AcDbLinetypeTableRecord
2
BYLAYER
70
0
0
ENDTAB
0
TABLE
2
LAYER
5
2
100
AcDbSymbolTable
70
2
0
LAYER
5
50
100
AcDbSymbolTableRecord
100
AcDbLayerTableRecord
2
0
70
0
6
CONTINUOUS
0
ENDTAB
0
TABLE
2
STYLE
5
3
100
AcDbSymbolTable
70
1
0
STYLE
5
11
100
AcDbSymbolTableRecord
100
AcDbTextStyleTableRecord
2
STANDARD
70
0
0
ENDTAB
0
TABLE
2
VIEW
5
6
100
AcDbSymbolTable
70
0
0
ENDTAB
0
TABLE
2
UCS
5
7
100
AcDbSymbolTable
70
0
0
ENDTAB
0
TABLE
2
APPID
5
9
100
AcDbSymbolTable
70
2
0
APPID
5
12
100
AcDbSymbolTableRecord
100
AcDbRegAppTableRecord
2
ACAD
70
0
0
ENDTAB
0
TABLE
2
DIMSTYLE
5
A
100
AcDbSymbolTable
70
1
0
ENDTAB
0
TABLE
2
BLOCK_RECORD
5
1
100
AcDbSymbolTable
70
1
0
BLOCK_RECORD
5
1F
100
AcDbSymbolTableRecord
100
AcDbBlockTableRecord
2
*MODEL_SPACE
0
BLOCK_RECORD
5
1B
100
AcDbSymbolTableRecord
100
AcDbBlockTableRecord
2
*PAPER_SPACE
0
ENDTAB
0
ENDSEC
0
SECTION
2
BLOCKS
0
BLOCK
5
20
100
AcDbEntity
100
AcDbBlockBegin
2
*MODEL_SPACE
0
ENDBLK
5
21
100
AcDbEntity
100
AcDbBlockEnd
0
BLOCK
5
1C
100
AcDbEntity
100
AcDbBlockBegin
2
*PAPER_SPACE
0
ENDBLK
5
1D
100
AcDbEntity
100
AcDbBlockEnd
0
ENDSEC
0
SECTION
2
ENTITIES
0
LWPOLYLINE
5
100
100
AcDbEntity
8
0
100
AcDbPolyline
90
8
70
1
43
0.0
10
260.00000034622241
20
350.75000032026605
10
260.00000034622241
20
326.75000032026594
42
0.41421356237309503
10
263.00000034622241
20
323.750000320266
10
277.00000034622241
20
323.750000320266
42
0.41421356237309503
10
280.00000034622241
20
326.75000032026594
10
280.00000034622241
20
350.75000032026605
42
0.41421356237309503
10
277.00000034622241
20
353.75000032026605
10
263.00000034622241
20
353.75000032026605
42
0.41421356237309503
0
CIRCLE
5
101
100
AcDbEntity
8
0
100
AcDbCircle
10
278.00000034622246
20
303.75000032026605
30
0
40
1.9999999999999929
210
1.4205877669951126e-42
220
1.0506057673290565e-73
230
1
0
CIRCLE
5
102
100
AcDbEntity
8
0
100
AcDbCircle
10
262.00000034622246
20
303.75000032026605
30
-1.4210854715202004e-13
40
1.9999999999999929
210
1.4205877669951126e-42
220
1.0506057673290565e-73
230
1
0
CIRCLE
5
103
100
AcDbEntity
8
0
100
AcDbCircle
10
180.00000034622241
20
209.00000032218747
30
0
40
1.9999999999999929
210
1.4205877669951126e-42
220
1.0506057673290565e-73
230
1
0
CIRCLE
5
104
100
AcDbEntity
8
0
100
AcDbCircle
10
120.00000034622239
20
161.00000032218756
30
-1.4210854715202004e-13
40
2.0000000000000107
210
1.6155871338926336e-27
220
1.1948189333493403e-58
230
1
0
CIRCLE
5
105
100
AcDbEntity
8
0
100
AcDbCircle
10
513.00000069244231
20
314.00000032218747
30
0
40
2.0000000000000284
210
1.4205887362824064e-42
220
1.0506064841723553e-73
230
1
0
CIRCLE
5
106
100
AcDbEntity
8
0
100
AcDbCircle
10
398.00000069244231
20
88.000000322187475
30
0
40
2.0000000000000284
210
1.4205887362824064e-42
220
1.0506064841723553e-73
230
1
0
CIRCLE
5
107
100
AcDbEntity
8
0
100
AcDbCircle
10
398.00000069244231
20
180.0000003221875
30
0
40
2.0000000000000284
210
1.4205887362824064e-42
220
1.0506064841723553e-73
230
1
0
CIRCLE
5
108
100
AcDbEntity
8
0
100
AcDbCircle
10
398.00000069244231
20
222.0000003221875
30
0
40
1.9999999999999574
210
1.4205887255452535e-42
220
1.0506064762316177e-73
230
1
0
CIRCLE
5
109
100
AcDbEntity
8
0
100
AcDbCircle
10
70.000000346222393
20
161.00000032218756
30
-1.4210854715202004e-13
40
2.0000000000000018
210
1.4205877683274601e-42
220
1.0506057683144036e-73
230
1
0
CIRCLE
5
110
100
AcDbEntity
8
0
100
AcDbCircle
10
234.00000034622238
20
161.00000032218747
30
0
40
1.9999999999999929
210
1.4205877669951126e-42
220
1.0506057673290565e-73
230
1
0
CIRCLE
5
111
100
AcDbEntity
8
0
100
AcDbCircle
10
234.00000034622238
20
209.00000032218747
30
0
40
1.9999999999999929
210
1.4205877669951126e-42
220
1.0506057673290565e-73
230
1
0
CIRCLE
5
112
100
AcDbEntity
8
0
100
AcDbCircle
10
70.000000346222393
20
311.00000032218753
30
0
40
2.0000000000000018
210
1.4205877683274601e-42
220
1.0506057683144036e-73
230
1
0
CIRCLE
5
113
100
AcDbEntity
8
0
100
AcDbCircle
10
398.00000069244231
20
314.00000032218747
30
0
40
1.9999999999999574
210
1.4205887255452535e-42
220
1.0506064762316177e-73
230
1
0
CIRCLE
5
114
100
AcDbEntity
8
0
100
AcDbCircle
10
513.00000069244231
20
88.000000322187489
30
0
40
2.0000000000000284
210
1.4205887362824064e-42
220
1.0506064841723553e-73
230
1
0
CIRCLE
5
115
100
AcDbEntity
8
0
100
AcDbCircle
10
513.00000069244231
20
180.0000003221875
30
0
40
2.0000000000000284
210
1.4205887362824064e-42
220
1.0506064841723553e-73
230
1
0
CIRCLE
5
116
100
AcDbEntity
8
0
100
AcDbCircle
10
513.00000069244231
20
222.0000003221875
30
0
40
2.0000000000000284
210
1.4205887362824064e-42
220
1.0506064841723553e-73
230
1
0
CIRCLE
5
117
100
AcDbEntity
8
0
100
AcDbCircle
10
120.00000034622239
20
311.00000032218753
30
0
40
1.9999999999999929
210
1.4205877669951126e-42
220
1.0506057673290565e-73
230
1
0
CIRCLE
5
118
100
AcDbEntity
8
0
100
AcDbCircle
10
180.00000034622241
20
161.00000032218747
30
0
40
1.9999999999999929
210
1.4205877669951126e-42
220
1.0506057673290565e-73
230
1
0
CIRCLE
5
119
100
AcDbEntity
8
0
100
AcDbCircle
10
300.00000034622241
20
111.25000032026605
30
1.4210854715202004e-13
40
2.7499999999999858
210
1.6155871338926336e-27
220
1.1948189333493403e-58
230
1
0
CIRCLE
5
120
100
AcDbEntity
8
0
100
AcDbCircle
10
300.00000034622241
20
207.50000032026605
30
0
40
2.7499999999999858
210
1.6155871338926336e-27
220
1.1948189333493403e-58
230
1
0
CIRCLE
5
121
100
AcDbEntity
8
0
100
AcDbCircle
10
300.00000034622241
20
303.75000032026605
30
0
40
2.7499999999999858
210
1.6155871338926336e-27
220
1.1948189333493403e-58
230
1
0
LWPOLYLINE
5
122
100
AcDbEntity
8
0
100
AcDbPolyline
90
4
70
1
43
0.0
10
530.4999989634556
20
30.000010945048302
10
530.49999827207228
20
45.000010945048281
42
0.99999999999999989
10
515.49999827207228
20
45.000010253664904
10
515.4999989634556
20
30.000010253664932
42
0.99999999999999989
0
LWPOLYLINE
5
123
100
AcDbEntity
8
0
100
AcDbPolyline
90
4
70
1
43
0.0
10
69.499999654839101
20
45.000000320790427
10
69.499999654839115
20
30.000000320790427
42
0.99999999999999989
10
84.499999654839115
20
30.00000032079042
10
84.499999654839115
20
45.00000032079042
42
0.99999999999999989
0
LWPOLYLINE
5
124
100
AcDbEntity
8
0
100
AcDbPolyline
90
30
70
1
43
0.0
10
613.00000069244231
20
65.000000320789184
42
-0.41421356237312101
10
610.00000069244231
20
62.000000320789191
10
586.00000034622235
20
62.000000320789184
42
0.41421356237309503
10
583.00000034622246
20
59.000000320789184
10
583.00000034622246
20
3.0000003207903641
42
-0.41421356237309986
10
580.00000034622246
20
3.2079036286096044e-07
10
19.999999654839112
20
3.2079043366106674e-07
42
-0.41421356237309381
10
16.999999654839112
20
3.0000003207904236
10
16.999999654839119
20
59.000000320790434
42
0.41421356237309531
10
13.999999654839119
20
62.000000320790448
10
-11.000000345160899
20
62.000000320790448
42
-0.41421356237309936
10
-14.000000345160899
20
65.000000320790463
10
-14.000000345160879
20
380.00000032218759
42
-0.41421356237311369
10
-11.000000345160858
20
383.00000032218753
10
16.999999654839129
20
383.00000032218753
10
16.999999654839122
20
369.00000032218747
10
77.999999654839101
20
369.00000032218747
42
0.41421356237309503
10
80.999999654839115
20
372.00000032218747
10
80.99999965483903
20
411.00000032218753
42
-0.41421356237311585
10
83.999999654839144
20
414.00000032218759
10
516.00000034622246
20
414.00000032218747
42
-0.41421356237315055
10
519.00000034622246
20
411.00000032218753
10
519.00000034622246
20
372.00000032218747
42
0.41421356237309503
10
522.00000034622246
20
369.00000032218747
10
580.00000034622246
20
369.00000032218747
42
0.41421356237309503
10
583.00000034622246
20
372.00000032218747
10
583.00000034622246
20
380.00000032218747
42
-0.41421356237310897
10
586.00000034622235
20
383.00000032218742
10
610.00000069244231
20
383.00000032218742
42
-0.41421356237314361
10
613.00000069244231
20
380.00000032218747
0
CIRCLE
5
125
100
AcDbEntity
8
0
100
AcDbCircle
10
300.00000034622241
20
400.00000032026605
30
0
40
2.7499999999999858
210
2.1712355172068519e-27
220
-2.6589862465489077e-43
230
1
0
CIRCLE
5
126
100
AcDbEntity
8
0
100
AcDbCircle
10
600.00000034622246
20
368.00000032218742
30
0
40
2.7499999999999858
210
2.1712355172068519e-27
220
-2.6589862465489077e-43
230
1
0
CIRCLE
5
127
100
AcDbEntity
8
0
100
AcDbCircle
10
433.99999965483914
20
15.000000320790397
30
0
40
2.7499999999999858
210
2.1712355172068519e-27
220
-2.6589862465489077e-43
230
1
0
CIRCLE
5
128
100
AcDbEntity
8
0
100
AcDbCircle
10
299.99999965483914
20
15.000000320790413
30
0
40
2.7499999999999858
210
2.1712355172068519e-27
220
-2.6589862465489077e-43
230
1
0
CIRCLE
5
129
100
AcDbEntity
8
0
100
AcDbCircle
10
402.00000034622241
20
400.00000032026605
30
0
40
2.7499999999999858
210
2.1712355172068519e-27
220
-2.6589862465489077e-43
230
1
0
CIRCLE
5
130
100
AcDbEntity
8
0
100
AcDbCircle
10
600.00000034622235
20
77.000000322187446
30
-1.4210854715202004e-13
40
2.7499999999999858
210
2.1712355172068519e-27
220
-2.6589862465489077e-43
230
1
0
CIRCLE
5
131
100
AcDbEntity
8
0
100
AcDbCircle
10
165.99999965483909
20
15.000000320790431
30
0
40
2.7499999999999858
210
2.1712355172068519e-27
220
-2.6589862465489077e-43
230
1
0
CIRCLE
5
132
100
AcDbEntity
8
0
100
AcDbCircle
10
567.99999965483914
20
15.000000320790381
30
0
40
2.7499999999999858
210
2.1712355172068519e-27
220
-2.6589862465489077e-43
230
1
0
CIRCLE
5
133
100
AcDbEntity
8
0
100
AcDbCircle
10
600.00000034622235
20
222.50000032218747
30
-1.4210854715202004e-13
40
2.7499999999999858
210
2.1712355172068519e-27
220
-2.6589862465489077e-43
230
1
0
CIRCLE
5
134
100
AcDbEntity
8
0
100
AcDbCircle
10
-3.4516086232570667e-07
20
222.50000032218753
30
0
40
2.75
210
5.5564838331422005e-28
220
-6.8047035774833912e-44
230
1
0
CIRCLE
5
135
100
AcDbEntity
8
0
100
AcDbCircle
10
31.999999654839112
20
15.000000320790445
30
0
40
2.7499999999999991
210
5.5564838331422005e-28
220
-6.8047035774833912e-44
230
1
0
CIRCLE
5
136
100
AcDbEntity
8
0
100
AcDbCircle
10
-3.4516088014424809e-07
20
77.000000322187518
30
0
40
2.75
210
5.5564838331422005e-28
220
-6.8047035774833912e-44
230
1
0
CIRCLE
5
137
100
AcDbEntity
8
0
100
AcDbCircle
10
-3.4516084450716531e-07
20
368.00000032218753
30
0
40
2.75
210
5.5564838331422005e-28
220
-6.8047035774833912e-44
230
1
0
CIRCLE
5
138
100
AcDbEntity
8
0
100
AcDbCircle
10
504.00000034622246
20
400.00000032026605
30
0
40
2.7499999999999858
210
2.1712355172068519e-27
220
-2.6589862465489077e-43
230
1
0
CIRCLE
5
139
100
AcDbEntity
8
0
100
AcDbCircle
10
96.000000346222393
20
400.00000032026605
30
0
40
2.7500000000000036
210
5.5564838331422005e-28
220
-6.8047035774833912e-44
230
1
0
CIRCLE
5
140
100
AcDbEntity
8
0
100
AcDbCircle
10
198.00000034622241
20
400.00000032026605
30
0
40
2.7499999999999858
210
2.1712355172068519e-27
220
-2.6589862465489077e-43
230
1
0
ENDSEC
0
SECTION
2
OBJECTS
0
DICTIONARY
5
C
100
AcDbDictionary
3
ACAD_GROUP
350
D
3
ACAD_MLINESTYLE
350
17
0
DICTIONARY
5
D
100
AcDbDictionary
0
DICTIONARY
5
1A
330
C
100
AcDbDictionary
0
DICTIONARY
5
17
100
AcDbDictionary
0
ENDSEC
0
EOF
