0
SECTION
2
HEADER
9
$INSUNITS
70
4
9
$ACADVER
1
AC1014
9
$HANDSEED
5
FFFF
0
ENDSEC
0
SECTION
2
TABLES
0
TABLE
2
VPORT
5
8
100
AcDbSymbolTable
0
ENDTAB
0
TABLE
2
LTYPE
5
5
100
AcDbSymbolTable
0
LTYPE
5
14
100
AcDbSymbolTableRecord
100
AcDbLinetypeTableRecord
2
BYBLOCK
70
0
0
LTYPE
5
15
100
AcDbSymbolTableRecord
100
AcDbLinetypeTableRecord
2
BYLAYER
70
0
0
ENDTAB
0
TABLE
2
LAYER
5
2
100
AcDbSymbolTable
70
2
0
LAYER
5
50
100
AcDbSymbolTableRecord
100
AcDbLayerTableRecord
2
0
70
0
6
CONTINUOUS
0
ENDTAB
0
TABLE
2
STYLE
5
3
100
AcDbSymbolTable
70
1
0
STYLE
5
11
100
AcDbSymbolTableRecord
100
AcDbTextStyleTableRecord
2
STANDARD
70
0
0
ENDTAB
0
TABLE
2
VIEW
5
6
100
AcDbSymbolTable
70
0
0
ENDTAB
0
TABLE
2
UCS
5
7
100
AcDbSymbolTable
70
0
0
ENDTAB
0
TABLE
2
APPID
5
9
100
AcDbSymbolTable
70
2
0
APPID
5
12
100
AcDbSymbolTableRecord
100
AcDbRegAppTableRecord
2
ACAD
70
0
0
ENDTAB
0
TABLE
2
DIMSTYLE
5
A
100
AcDbSymbolTable
70
1
0
ENDTAB
0
TABLE
2
BLOCK_RECORD
5
1
100
AcDbSymbolTable
70
1
0
BLOCK_RECORD
5
1F
100
AcDbSymbolTableRecord
100
AcDbBlockTableRecord
2
*MODEL_SPACE
0
BLOCK_RECORD
5
1B
100
AcDbSymbolTableRecord
100
AcDbBlockTableRecord
2
*PAPER_SPACE
0
ENDTAB
0
ENDSEC
0
SECTION
2
BLOCKS
0
BLOCK
5
20
100
AcDbEntity
100
AcDbBlockBegin
2
*MODEL_SPACE
0
ENDBLK
5
21
100
AcDbEntity
100
AcDbBlockEnd
0
BLOCK
5
1C
100
AcDbEntity
100
AcDbBlockBegin
2
*PAPER_SPACE
0
ENDBLK
5
1D
100
AcDbEntity
100
AcDbBlockEnd
0
ENDSEC
0
SECTION
2
ENTITIES
0
LWPOLYLINE
5
100
100
AcDbEntity
8
0
100
AcDbPolyline
90
16
70
1
43
0.0
10
15.000001741018735
20
151.59999996548984
42
-0.4142135623730932
10
10.000001741018734
20
146.59999996548984
10
-76.999998258879231
20
146.59999996548984
10
-81.999998258879216
20
141.59999996548981
10
-81.999998258879216
20
58.599999965063951
10
-76.999998258879231
20
53.599999965063951
10
10.00000174101875
20
53.599999965063944
42
-0.41421356237309515
10
15.000001741018746
20
48.599999965063944
10
15.000001741018746
20
4.9999999662703996
42
-0.41421356237309737
10
10.000001741018707
20
-3.3729602614804529e-08
10
-609.9999989503774
20
-3.3729693482698053e-08
42
-0.41421356237310014
10
-614.99999895037752
20
4.9999999662703232
10
-614.99999895037752
20
410.00000000000006
42
-0.41421356237309087
10
-609.9999989503774
20
415
10
10.000001741018679
20
414.99999999999994
42
-0.41421356237308643
10
15.000001741018703
20
410.00000000000006
0
CIRCLE
5
101
100
AcDbEntity
8
0
100
AcDbCircle
10
1.0496468573406255e-06
20
303.75000000000006
30
0
40
2.7499999999999698
210
-4.9303805796797784e-32
220
2.1666711874356403e-33
230
1
0
CIRCLE
5
102
100
AcDbEntity
8
0
100
AcDbCircle
10
-599.99999895035319
20
303.75000000000006
30
0
40
2.7499999999999858
210
7.795154536268993e-40
220
2.0673654246781735e-33
230
1
0
CIRCLE
5
103
100
AcDbEntity
8
0
100
AcDbCircle
10
-299.99999895035319
20
15.000000000000034
30
0
40
2.7499999999999858
210
7.795154536268993e-40
220
2.0673654246781735e-33
230
1
0
CIRCLE
5
104
100
AcDbEntity
8
0
100
AcDbCircle
10
-149.99999895035313
20
15.000000000000034
30
0
40
2.7499999999999676
210
-4.930380579679779e-32
220
2.1787082495880609e-33
230
1
0
CIRCLE
5
105
100
AcDbEntity
8
0
100
AcDbCircle
10
-449.99999895035319
20
400
30
0
40
2.7499999999999858
210
7.795154536268993e-40
220
2.0673654246781735e-33
230
1
0
CIRCLE
5
106
100
AcDbEntity
8
0
100
AcDbCircle
10
-115.2999992970463
20
296.00000031259458
30
0
40
40.000000000000007
210
7.7951545362679196e-40
220
-2.6481536735324493e-34
230
1
0
CIRCLE
5
107
100
AcDbEntity
8
0
100
AcDbCircle
10
-299.99999895035319
20
400
30
0
40
2.7499999999999858
210
7.795154536268993e-40
220
2.0673654246781735e-33
230
1
0
CIRCLE
5
108
100
AcDbEntity
8
0
100
AcDbCircle
10
-149.99999895035313
20
400
30
0
40
2.7499999999999676
210
-4.930380579679779e-32
220
2.1787082495880609e-33
230
1
0
CIRCLE
5
109
100
AcDbEntity
8
0
100
AcDbCircle
10
-599.99999895035319
20
15.000000000000034
30
0
40
2.7499999999999858
210
7.795154536268993e-40
220
2.0673654246781735e-33
230
1
0
CIRCLE
5
110
100
AcDbEntity
8
0
100
AcDbCircle
10
-599.99999895035319
20
111.25000000000003
30
0
40
2.7499999999999858
210
7.795154536268993e-40
220
2.0673654246781735e-33
230
1
0
CIRCLE
5
111
100
AcDbEntity
8
0
100
AcDbCircle
10
1.0496468574407715e-06
20
207.50000000000003
30
0
40
2.7499999999999698
210
-4.9303805796797784e-32
220
2.1666711874356403e-33
230
1
0
CIRCLE
5
112
100
AcDbEntity
8
0
100
AcDbCircle
10
-599.99999895035319
20
207.50000000000003
30
0
40
2.7499999999999858
210
7.795154536268993e-40
220
2.0673654246781735e-33
230
1
0
CIRCLE
5
113
100
AcDbEntity
8
0
100
AcDbCircle
10
-599.99999895035319
20
400
30
0
40
2.7499999999999858
210
7.795154536268993e-40
220
2.0673654246781735e-33
230
1
0
CIRCLE
5
114
100
AcDbEntity
8
0
100
AcDbCircle
10
1.0496468572404795e-06
20
400
30
0
40
2.7499999999999698
210
-4.9303805796797784e-32
220
2.1666711874356403e-33
230
1
0
CIRCLE
5
115
100
AcDbEntity
8
0
100
AcDbCircle
10
1.0496468576410637e-06
20
15.000000000000034
30
0
40
2.7499999999999698
210
-4.9303805796797784e-32
220
2.1666711874356403e-33
230
1
0
CIRCLE
5
116
100
AcDbEntity
8
0
100
AcDbCircle
10
-449.99999895035319
20
15.000000000000034
30
0
40
2.7499999999999858
210
7.795154536268993e-40
220
2.0673654246781735e-33
230
1
0
ENDSEC
0
SECTION
2
OBJECTS
0
DICTIONARY
5
C
100
AcDbDictionary
3
ACAD_GROUP
350
D
3
ACAD_MLINESTYLE
350
17
0
DICTIONARY
5
D
100
AcDbDictionary
0
DICTIONARY
5
1A
330
C
100
AcDbDictionary
0
DICTIONARY
5
17
100
AcDbDictionary
0
ENDSEC
0
EOF
