0
SECTION
2
HEADER
9
$INSUNITS
70
4
9
$ACADVER
1
AC1014
9
$HANDSEED
5
FFFF
0
ENDSEC
0
SECTION
2
TABLES
0
TABLE
2
VPORT
5
8
100
AcDbSymbolTable
0
ENDTAB
0
TABLE
2
LTYPE
5
5
100
AcDbSymbolTable
0
LTYPE
5
14
100
AcDbSymbolTableRecord
100
AcDbLinetypeTableRecord
2
BYBLOCK
70
0
0
LTYPE
5
15
100
AcDbSymbolTableRecord
100
AcDbLinetypeTableRecord
2
BYLAYER
70
0
0
ENDTAB
0
TABLE
2
LAYER
5
2
100
AcDbSymbolTable
70
2
0
LAYER
5
50
100
AcDbSymbolTableRecord
100
AcDbLayerTableRecord
2
0
70
0
6
CONTINUOUS
0
ENDTAB
0
TABLE
2
STYLE
5
3
100
AcDbSymbolTable
70
1
0
STYLE
5
11
100
AcDbSymbolTableRecord
100
AcDbTextStyleTableRecord
2
STANDARD
70
0
0
ENDTAB
0
TABLE
2
VIEW
5
6
100
AcDbSymbolTable
70
0
0
ENDTAB
0
TABLE
2
UCS
5
7
100
AcDbSymbolTable
70
0
0
ENDTAB
0
TABLE
2
APPID
5
9
100
AcDbSymbolTable
70
2
0
APPID
5
12
100
AcDbSymbolTableRecord
100
AcDbRegAppTableRecord
2
ACAD
70
0
0
ENDTAB
0
TABLE
2
DIMSTYLE
5
A
100
AcDbSymbolTable
70
1
0
ENDTAB
0
TABLE
2
BLOCK_RECORD
5
1
100
AcDbSymbolTable
70
1
0
BLOCK_RECORD
5
1F
100
AcDbSymbolTableRecord
100
AcDbBlockTableRecord
2
*MODEL_SPACE
0
BLOCK_RECORD
5
1B
100
AcDbSymbolTableRecord
100
AcDbBlockTableRecord
2
*PAPER_SPACE
0
ENDTAB
0
ENDSEC
0
SECTION
2
BLOCKS
0
BLOCK
5
20
100
AcDbEntity
100
AcDbBlockBegin
2
*MODEL_SPACE
0
ENDBLK
5
21
100
AcDbEntity
100
AcDbBlockEnd
0
BLOCK
5
1C
100
AcDbEntity
100
AcDbBlockBegin
2
*PAPER_SPACE
0
ENDBLK
5
1D
100
AcDbEntity
100
AcDbBlockEnd
0
ENDSEC
0
SECTION
2
ENTITIES
0
CIRCLE
5
100
100
AcDbEntity
8
0
100
AcDbCircle
10
-990.00000575145123
20
29.999808617042177
30
0
40
1.5000000000000622
210
-5.7084621481035564e-55
220
-1.1754943508222883e-38
230
1
0
CIRCLE
5
101
100
AcDbEntity
8
0
100
AcDbCircle
10
-750.00000575145441
20
29.999854852483857
30
0
40
1.5000000000000622
210
-5.7084621481035564e-55
220
-1.1754943508222883e-38
230
1
0
CIRCLE
5
102
100
AcDbEntity
8
0
100
AcDbCircle
10
-510.00000575145702
20
29.99990108792554
30
0
40
1.4999999999999905
210
-0
220
0
230
1
0
CIRCLE
5
103
100
AcDbEntity
8
0
100
AcDbCircle
10
-270.00000575145981
20
29.99994732336723
30
0
40
1.4999999999999905
210
-0
220
0
230
1
0
CIRCLE
5
104
100
AcDbEntity
8
0
100
AcDbCircle
10
-30.00000575146279
20
29.999993558808917
30
0
40
1.5000000000000044
210
-5.7084621481035543e-55
220
-1.1754943508222878e-38
230
1
0
CIRCLE
5
105
100
AcDbEntity
8
0
100
AcDbCircle
10
-210.00000575146061
20
29.999958882227649
30
0
40
1.5000000000000266
210
-5.708462148103555e-55
220
-1.175494350822288e-38
230
1
0
CIRCLE
5
106
100
AcDbEntity
8
0
100
AcDbCircle
10
-450.00000575145776
20
29.999912646785969
30
0
40
1.4999999999999905
210
-0
220
0
230
1
0
CIRCLE
5
107
100
AcDbEntity
8
0
100
AcDbCircle
10
-690.00000575145464
20
29.999866411344275
30
0
40
1.5000000000000622
210
-5.7084621481035564e-55
220
-1.1754943508222883e-38
230
1
0
CIRCLE
5
108
100
AcDbEntity
8
0
100
AcDbCircle
10
-930.00000575145191
20
29.999820175902595
30
0
40
1.4999999999999194
210
-5.7084559250882786e-55
220
-1.175494350822288e-38
230
1
0
CIRCLE
5
109
100
AcDbEntity
8
0
100
AcDbCircle
10
-810.0000057514535
20
29.999843293623442
30
0
40
1.5000000000000622
210
-5.7084621481035564e-55
220
-1.1754943508222883e-38
230
1
0
CIRCLE
5
110
100
AcDbEntity
8
0
100
AcDbCircle
10
-570.00000575145634
20
29.999889529065115
30
0
40
1.4999999999999905
210
-0
220
0
230
1
0
CIRCLE
5
111
100
AcDbEntity
8
0
100
AcDbCircle
10
-330.00000575145907
20
29.999935764506805
30
0
40
1.4999999999999905
210
-0
220
0
230
1
0
CIRCLE
5
112
100
AcDbEntity
8
0
100
AcDbCircle
10
-90.000005751462055
20
29.999981999948492
30
0
40
1.5000000000000082
210
-5.7084621481035564e-55
220
-1.175494350822288e-38
230
1
0
CIRCLE
5
113
100
AcDbEntity
8
0
100
AcDbCircle
10
-150.00000575146132
20
29.999970441088074
30
0
40
1.5000000000000082
210
-5.7084621481035564e-55
220
-1.175494350822288e-38
230
1
0
CIRCLE
5
114
100
AcDbEntity
8
0
100
AcDbCircle
10
-390.00000575145856
20
29.999924205646384
30
0
40
1.4999999999999905
210
-0
220
0
230
1
0
CIRCLE
5
115
100
AcDbEntity
8
0
100
AcDbCircle
10
-630.00000575145577
20
29.9998779702047
30
0
40
1.4999999999999905
210
-0
220
0
230
1
0
CIRCLE
5
116
100
AcDbEntity
8
0
100
AcDbCircle
10
-870.00000575145248
20
29.999831734763021
30
0
40
1.5000000000000622
210
-5.7084621481035564e-55
220
-1.1754943508222883e-38
230
1
0
LWPOLYLINE
5
117
100
AcDbEntity
8
0
100
AcDbPolyline
90
24
70
1
43
0.0
10
14.999996204662347
20
20.000003509787476
42
-0.41421356237353102
10
11.999996782605056
20
17.000002931840402
10
-44.000003227644072
20
16.999992143577572
42
0.41421356237313173
10
-47.000002649701372
20
13.9999915656346
10
-46.999997640861828
20
-12.000008769475155
42
-0.41421356237583978
10
-49.999997062946875
20
-15.00000934741813
10
-1041.29999706846
20
-15.000200309697359
42
-0.4142135623703232
10
-1044.2999976463745
20
-12.000200887640595
10
-1044.3000016341812
20
8.6997981241708402
10
-1044.3000028063327
20
14.763731445324673
42
0.21342176593041012
10
-1045.3000032440971
20
16.999799234476324
10
-1102.000003214798
20
16.999788311353129
42
-0.41421356237311024
10
-1105.0000037927412
20
19.999787733410159
10
-1105.000017807859
20
92.749786426743995
42
-0.41421356237307599
10
-1102.0000183858022
20
95.749787004686993
10
-998.00001845889301
20
95.749807040044942
42
-0.41421356218234029
10
-995.00001788095017
20
92.749807619941606
10
-995.00000903752812
20
46.999807653804872
42
0.41421356237309331
10
-992.00000845763157
20
43.999808233701458
10
-648.04220436984895
20
43.999874720349098
10
-18.00000841887702
20
43.999996096512497
42
0.41421356237309631
10
-15.000008996820089
20
46.999996674455488
10
-15.000010586163338
20
55.249996407688172
42
-0.99999999999999989
10
14.999989413836182
20
55.250002189997161
0
LWPOLYLINE
5
118
100
AcDbEntity
8
0
100
AcDbPolyline
90
4
70
1
43
0.0
10
-1068.0000132901014
20
68.99979353517304
42
-0.99999999999999989
10
-1068.0000139666477
20
72.499793535173012
10
-1059.0000139666477
20
72.49979527486262
42
-0.99999999999999989
10
-1059.0000132901016
20
68.999795274862663
0
LWPOLYLINE
5
119
100
AcDbEntity
8
0
100
AcDbPolyline
90
4
70
1
43
0.0
10
-1052.5000083126563
20
43.249796531305705
42
-0.99999999999999989
10
-1052.5000129518289
20
67.249796531305236
10
-1043.5000129518291
20
67.249798270994916
42
-0.99999999999999989
10
-1043.5000083126565
20
43.249798270995257
0
CIRCLE
5
120
100
AcDbEntity
8
0
100
AcDbCircle
10
-1020.0000057514472
20
29.999802821332459
30
0
40
2.7499999999999942
210
9.802464002141114e-32
220
3.0261104113655718e-27
230
1
0
CIRCLE
5
121
100
AcDbEntity
8
0
100
AcDbCircle
10
-1029.9999999524814
20
-0.00019909153412264356
30
0
40
2.7499999999999774
210
-5.8297313121352553e-34
220
3.026110411346578e-27
230
1
0
CIRCLE
5
122
100
AcDbEntity
8
0
100
AcDbCircle
10
-1015.0000138216744
20
71.749803787826053
30
0
40
1.7500000000000127
210
-5.8297313121352536e-34
220
3.0261104113465773e-27
230
1
0
CIRCLE
5
123
100
AcDbEntity
8
0
100
AcDbCircle
10
-1090.0000051412751
20
26.999790623125151
30
0
40
2.7500000000000209
210
-5.8297313121352502e-34
220
3.0261104113465751e-27
230
1
0
ARC
5
124
100
AcDbEntity
8
0
100
AcDbCircle
10
-1025.0000164312085
20
85.249801854837386
30
3.4079578652379551e-41
40
5.5000000000000213
210
9.7874095016176292e-32
220
3.7947363462084175e-27
230
1
100
AcDbArc
50
90.000011075207524
51
270.00001107520751
0
LINE
5
125
100
AcDbEntity
8
0
100
AcDbLine
10
-1025.0000174943521
20
90.749801854837301
30
-2.0871049904041897e-26
11
-1015.0000174943523
21
90.749803787825812
31
0
0
ARC
5
126
100
AcDbEntity
8
0
100
AcDbCircle
10
-1015.0000164312088
20
85.249803787825854
30
3.4079578652379551e-41
40
5.5000000000000213
210
9.7874095016176292e-32
220
3.7947363462084053e-27
230
1
100
AcDbArc
50
-89.99998892479249
51
90.000011075206331
0
LINE
5
127
100
AcDbEntity
8
0
100
AcDbLine
10
-1015.0000153680652
20
79.749803787825925
30
2.0871049904041903e-26
11
-1025.0000153680649
21
79.749801854837457
31
2.0871049904041969e-26
0
ARC
5
128
100
AcDbEntity
8
0
100
AcDbCircle
10
-1028.0000076361109
20
39.749801267127452
30
8.5198946630948878e-42
40
1.7500000000000089
210
7.2782836162289685e-34
220
-3.7653009325281872e-27
230
1
100
AcDbArc
50
-89.999988924786734
51
90.00001107521328
0
LINE
5
129
100
AcDbEntity
8
0
100
AcDbLine
10
-1028.0000072978378
20
37.999801267127474
30
-6.5892766319244752e-27
11
-1037.0000072978378
21
37.999799527437823
31
-4.9303806576313238e-31
0
ARC
5
130
100
AcDbEntity
8
0
100
AcDbCircle
10
-1037.0000076361107
20
39.749799527437801
30
-8.5198946630948878e-42
40
1.7500000000000133
210
7.2782836162289471e-34
220
-3.7653009325281771e-27
230
1
100
AcDbArc
50
90.00001107521328
51
270.0000110752058
0
LINE
5
131
100
AcDbEntity
8
0
100
AcDbLine
10
-1037.0000079743838
20
41.49979952743778
30
6.5892766319244752e-27
11
-1028.0000079743841
21
41.499801267127424
31
6.5892766319244924e-27
0
ARC
5
132
100
AcDbEntity
8
0
100
AcDbCircle
10
-1068.0000076361102
20
39.749793535173502
30
4.0357395772554732e-42
40
1.7500000000000089
210
7.2782835649814669e-34
220
-3.76530093252818e-27
230
1
100
AcDbArc
50
90.00001107521328
51
270.00001107521325
0
LINE
5
133
100
AcDbEntity
8
0
100
AcDbLine
10
-1068.0000079743834
20
41.499793535173481
30
6.5892766319244752e-27
11
-1059.0000079743832
21
41.499795274863096
31
-4.9303806576313238e-31
0
ARC
5
134
100
AcDbEntity
8
0
100
AcDbCircle
10
-1059.0000076361102
20
39.749795274863125
30
-4.0357395772554732e-42
40
1.7500000000000133
210
7.2782836601553502e-34
220
-3.76530093252817e-27
230
1
100
AcDbArc
50
-89.999988924794224
51
90.000011075205819
0
LINE
5
135
100
AcDbEntity
8
0
100
AcDbLine
10
-1059.0000072978373
20
37.999795274863139
30
-6.5892766319244752e-27
11
-1068.0000072978371
21
37.999793535173524
31
-6.5892766319244666e-27
0
ARC
5
136
100
AcDbEntity
8
0
100
AcDbCircle
10
-1028.000013628375
20
70.749801267127012
30
1.1613961672324084e-40
40
1.7500000000000488
210
7.2076019697764832e-34
220
-3.7287365131670305e-27
230
1
100
AcDbArc
50
-89.999988924794224
51
90.00001107521328
0
LINE
5
137
100
AcDbEntity
8
0
100
AcDbLine
10
-1028.0000132901021
20
68.999801267126998
30
-6.52528889804249e-27
11
-1037.0000132901023
21
68.999799527437332
31
-9.8607613152626476e-31
0
ARC
5
138
100
AcDbEntity
8
0
100
AcDbCircle
10
-1037.000013628375
20
70.749799527437332
30
1.6142958309021893e-41
40
1.7500000000000133
210
7.2076571559982883e-34
220
-3.728765056819918e-27
230
1
100
AcDbArc
50
90.000011075205819
51
270.00001107519836
0
LINE
5
139
100
AcDbEntity
8
0
100
AcDbLine
10
-1037.0000139666479
20
72.499799527437304
30
6.5253388494350443e-27
11
-1028.0000139666481
21
72.499801267127026
31
6.525288898042721e-27
0
CIRCLE
5
140
100
AcDbEntity
8
0
100
AcDbCircle
10
-5.8181337017553548e-06
20
30.499999564170849
30
0
40
2.7500000000000075
210
-9.9190586283838198e-32
220
3.0261104113275817e-27
230
1
0
CIRCLE
5
141
100
AcDbEntity
8
0
100
AcDbCircle
10
-706.66666661915303
20
-0.00013680211961474418
30
0
40
2.7499999999999774
210
-5.8297313121352553e-34
220
3.026110411346578e-27
230
1
0
CIRCLE
5
142
100
AcDbEntity
8
0
100
AcDbCircle
10
-167.77777773027228
20
-3.298642876824511e-05
30
0
40
2.7499999999999774
210
-5.8297313121352553e-34
220
3.026110411346578e-27
230
1
0
CIRCLE
5
143
100
AcDbEntity
8
0
100
AcDbCircle
10
-598.88888884137691
20
-0.00011603898144544437
30
0
40
2.7499999999999774
210
-5.8297313121352553e-34
220
3.026110411346578e-27
230
1
0
CIRCLE
5
144
100
AcDbEntity
8
0
100
AcDbCircle
10
-814.44444439692904
20
-0.00015756525778404395
30
0
40
2.7499999999999774
210
-5.8297313121352553e-34
220
3.026110411346578e-27
230
1
0
CIRCLE
5
145
100
AcDbEntity
8
0
100
AcDbCircle
10
-491.11111106360067
20
-9.5275843276144563e-05
30
0
40
2.7499999999999774
210
-5.8297313121352553e-34
220
3.026110411346578e-27
230
1
0
CIRCLE
5
146
100
AcDbEntity
8
0
100
AcDbCircle
10
-383.33333328582455
20
-7.4512705106844745e-05
30
0
40
2.7499999999999774
210
-5.8297313121352553e-34
220
3.026110411346578e-27
230
1
0
CIRCLE
5
147
100
AcDbEntity
8
0
100
AcDbCircle
10
-275.55555550804831
20
-5.3749566937544907e-05
30
0
40
2.7499999999999774
210
-5.8297313121352553e-34
220
3.026110411346578e-27
230
1
0
CIRCLE
5
148
100
AcDbEntity
8
0
100
AcDbCircle
10
-922.22222217470517
20
-0.00017832839595334377
30
0
40
2.7499999999999774
210
-5.8297313121352553e-34
220
3.026110411346578e-27
230
1
0
CIRCLE
5
149
100
AcDbEntity
8
0
100
AcDbCircle
10
-1090.0000164593257
20
85.749789316459214
30
0
40
2.7499999999999587
210
-5.8297313121352502e-34
220
3.0261104113465751e-27
230
1
0
CIRCLE
5
150
100
AcDbEntity
8
0
100
AcDbCircle
10
-1000.0000138216745
20
71.749806687308777
30
0
40
1.7500000000000127
210
-5.8297313121352536e-34
220
3.0261104113465773e-27
230
1
0
CIRCLE
5
151
100
AcDbEntity
8
0
100
AcDbCircle
10
-1.0586163576151158e-05
20
55.249999298842667
30
0
40
2.750000000000012
210
-9.9190586283838198e-32
220
3.0261104113275813e-27
230
1
0
CIRCLE
5
152
100
AcDbEntity
8
0
100
AcDbCircle
10
-59.999999952496253
20
-1.2223290598945323e-05
30
0
40
2.7499999999999774
210
-5.8297313121352553e-34
220
3.026110411346578e-27
230
1
0
ENDSEC
0
SECTION
2
OBJECTS
0
DICTIONARY
5
C
100
AcDbDictionary
3
ACAD_GROUP
350
D
3
ACAD_MLINESTYLE
350
17
0
DICTIONARY
5
D
100
AcDbDictionary
0
DICTIONARY
5
1A
330
C
100
AcDbDictionary
0
DICTIONARY
5
17
100
AcDbDictionary
0
ENDSEC
0
EOF
